<svg width="46" height="46" viewBox="0 0 46 46" fill="none" xmlns="http://www.w3.org/2000/svg">
<ellipse cx="23" cy="23" rx="23" ry="23" fill="black"/>
<path d="M21.078 31.232C22.118 31.232 23.086 30.872 23.982 30.152L24.942 31.448C23.838 32.328 22.542 32.768 21.054 32.768C19.87 32.768 18.766 32.44 17.742 31.784C16.718 31.128 15.942 30.256 15.414 29.168C13.126 29.072 11.262 28.248 9.822 26.696C8.398 25.192 7.686 23.312 7.686 21.056C7.686 18.752 8.43 16.832 9.918 15.296C11.438 13.712 13.382 12.92 15.75 12.92C18.118 12.92 20.062 13.712 21.582 15.296C23.07 16.832 23.814 18.752 23.814 21.056C23.814 23.072 23.206 24.824 21.99 26.312C20.774 27.816 19.19 28.728 17.238 29.048C17.702 29.976 18.494 30.632 19.614 31.016C20.03 31.16 20.518 31.232 21.078 31.232ZM15.75 27.44C17.638 27.44 19.166 26.824 20.334 25.592C21.454 24.408 22.014 22.896 22.014 21.056C22.014 19.216 21.454 17.704 20.334 16.52C19.166 15.288 17.638 14.672 15.75 14.672C13.862 14.672 12.334 15.288 11.166 16.52C10.046 17.704 9.486 19.216 9.486 21.056C9.486 22.896 10.046 24.408 11.166 25.592C12.334 26.824 13.862 27.44 15.75 27.44ZM26.11 18.92C27.07 17.512 28.502 16.808 30.406 16.808C32.134 16.808 33.534 17.408 34.606 18.608C35.678 19.792 36.214 21.256 36.214 23C36.214 24.744 35.678 26.208 34.606 27.392C33.534 28.592 32.094 29.192 30.286 29.192C28.478 29.192 27.086 28.48 26.11 27.056V33.752H24.31V17H26.11V18.92ZM30.166 18.44C28.87 18.44 27.846 18.888 27.094 19.784C26.374 20.632 26.014 21.704 26.014 23C26.014 24.296 26.374 25.368 27.094 26.216C27.846 27.112 28.87 27.56 30.166 27.56C31.446 27.56 32.486 27.112 33.286 26.216C34.038 25.368 34.414 24.296 34.414 23C34.414 21.704 34.038 20.632 33.286 19.784C32.486 18.888 31.446 18.44 30.166 18.44Z" fill="white"/>
</svg>
